<mxfile host="app.diagrams.net" agent="Mozilla/5.0 (Windows NT 10.0; Win64; x64) AppleWebKit/537.36 (KHTML, like Gecko) Chrome/137.0.0.0 Safari/537.36 Edg/137.0.0.0" version="27.1.4" pages="3">
  <diagram name="Page-1" id="YvXMkH7VLTGxORlRW1wt">
    <mxGraphModel dx="1426" dy="832" grid="1" gridSize="10" guides="1" tooltips="1" connect="1" arrows="1" fold="1" page="1" pageScale="1" pageWidth="850" pageHeight="1100" math="0" shadow="0">
      <root>
        <mxCell id="0" />
        <mxCell id="1" parent="0" />
        <mxCell id="Uv3ykJaYmCXkG5oXQriE-1" value="" style="rounded=1;whiteSpace=wrap;html=1;" vertex="1" parent="1">
          <mxGeometry x="80" y="180" width="670" height="140" as="geometry" />
        </mxCell>
        <mxCell id="Uv3ykJaYmCXkG5oXQriE-2" value="K" style="whiteSpace=wrap;html=1;aspect=fixed;" vertex="1" parent="1">
          <mxGeometry x="120" y="210" width="80" height="80" as="geometry" />
        </mxCell>
        <mxCell id="Uv3ykJaYmCXkG5oXQriE-3" value="E" style="whiteSpace=wrap;html=1;aspect=fixed;" vertex="1" parent="1">
          <mxGeometry x="210" y="210" width="80" height="80" as="geometry" />
        </mxCell>
        <mxCell id="Uv3ykJaYmCXkG5oXQriE-4" value="Y" style="whiteSpace=wrap;html=1;aspect=fixed;" vertex="1" parent="1">
          <mxGeometry x="300" y="210" width="80" height="80" as="geometry" />
        </mxCell>
        <mxCell id="Uv3ykJaYmCXkG5oXQriE-5" value="L" style="whiteSpace=wrap;html=1;aspect=fixed;" vertex="1" parent="1">
          <mxGeometry x="385" y="210" width="80" height="80" as="geometry" />
        </mxCell>
        <mxCell id="Uv3ykJaYmCXkG5oXQriE-6" value="L" style="whiteSpace=wrap;html=1;aspect=fixed;" vertex="1" parent="1">
          <mxGeometry x="470" y="210" width="80" height="80" as="geometry" />
        </mxCell>
        <mxCell id="Uv3ykJaYmCXkG5oXQriE-7" value="A" style="whiteSpace=wrap;html=1;aspect=fixed;" vertex="1" parent="1">
          <mxGeometry x="560" y="210" width="80" height="80" as="geometry" />
        </mxCell>
        <mxCell id="Uv3ykJaYmCXkG5oXQriE-8" value="" style="whiteSpace=wrap;html=1;aspect=fixed;" vertex="1" parent="1">
          <mxGeometry x="650" y="210" width="80" height="80" as="geometry" />
        </mxCell>
        <mxCell id="Uv3ykJaYmCXkG5oXQriE-9" value="STRING - 7 POSICOES" style="text;html=1;align=center;verticalAlign=middle;resizable=0;points=[];autosize=1;strokeColor=none;fillColor=none;fontSize=20;" vertex="1" parent="1">
          <mxGeometry x="100" y="123" width="240" height="40" as="geometry" />
        </mxCell>
        <mxCell id="Uv3ykJaYmCXkG5oXQriE-10" value="K" style="whiteSpace=wrap;html=1;aspect=fixed;" vertex="1" parent="1">
          <mxGeometry x="120" y="427" width="80" height="80" as="geometry" />
        </mxCell>
        <mxCell id="Uv3ykJaYmCXkG5oXQriE-11" value="E" style="whiteSpace=wrap;html=1;aspect=fixed;" vertex="1" parent="1">
          <mxGeometry x="210" y="427" width="80" height="80" as="geometry" />
        </mxCell>
        <mxCell id="Uv3ykJaYmCXkG5oXQriE-12" value="Y" style="whiteSpace=wrap;html=1;aspect=fixed;" vertex="1" parent="1">
          <mxGeometry x="300" y="427" width="80" height="80" as="geometry" />
        </mxCell>
        <mxCell id="Uv3ykJaYmCXkG5oXQriE-13" value="L" style="whiteSpace=wrap;html=1;aspect=fixed;" vertex="1" parent="1">
          <mxGeometry x="385" y="427" width="80" height="80" as="geometry" />
        </mxCell>
        <mxCell id="Uv3ykJaYmCXkG5oXQriE-14" value="L" style="whiteSpace=wrap;html=1;aspect=fixed;" vertex="1" parent="1">
          <mxGeometry x="470" y="427" width="80" height="80" as="geometry" />
        </mxCell>
        <mxCell id="Uv3ykJaYmCXkG5oXQriE-15" value="A" style="whiteSpace=wrap;html=1;aspect=fixed;" vertex="1" parent="1">
          <mxGeometry x="560" y="427" width="80" height="80" as="geometry" />
        </mxCell>
        <mxCell id="Uv3ykJaYmCXkG5oXQriE-16" value="" style="whiteSpace=wrap;html=1;aspect=fixed;" vertex="1" parent="1">
          <mxGeometry x="650" y="427" width="80" height="80" as="geometry" />
        </mxCell>
        <mxCell id="Uv3ykJaYmCXkG5oXQriE-17" value="VARCHAR - 7 POSICOES" style="text;html=1;align=center;verticalAlign=middle;resizable=0;points=[];autosize=1;strokeColor=none;fillColor=none;fontSize=20;" vertex="1" parent="1">
          <mxGeometry x="110" y="340" width="260" height="40" as="geometry" />
        </mxCell>
        <mxCell id="Uv3ykJaYmCXkG5oXQriE-18" value="K" style="whiteSpace=wrap;html=1;aspect=fixed;" vertex="1" parent="1">
          <mxGeometry x="130" y="627" width="80" height="80" as="geometry" />
        </mxCell>
        <mxCell id="Uv3ykJaYmCXkG5oXQriE-19" value="E" style="whiteSpace=wrap;html=1;aspect=fixed;" vertex="1" parent="1">
          <mxGeometry x="220" y="627" width="80" height="80" as="geometry" />
        </mxCell>
        <mxCell id="Uv3ykJaYmCXkG5oXQriE-20" value="Y" style="whiteSpace=wrap;html=1;aspect=fixed;" vertex="1" parent="1">
          <mxGeometry x="310" y="627" width="80" height="80" as="geometry" />
        </mxCell>
        <mxCell id="Uv3ykJaYmCXkG5oXQriE-21" value="L" style="whiteSpace=wrap;html=1;aspect=fixed;" vertex="1" parent="1">
          <mxGeometry x="395" y="627" width="80" height="80" as="geometry" />
        </mxCell>
        <mxCell id="Uv3ykJaYmCXkG5oXQriE-22" value="L" style="whiteSpace=wrap;html=1;aspect=fixed;" vertex="1" parent="1">
          <mxGeometry x="480" y="627" width="80" height="80" as="geometry" />
        </mxCell>
        <mxCell id="Uv3ykJaYmCXkG5oXQriE-23" value="A" style="whiteSpace=wrap;html=1;aspect=fixed;" vertex="1" parent="1">
          <mxGeometry x="570" y="627" width="80" height="80" as="geometry" />
        </mxCell>
        <mxCell id="Uv3ykJaYmCXkG5oXQriE-24" value="NVARCHAR - 7 POSICOES" style="text;html=1;align=center;verticalAlign=middle;resizable=0;points=[];autosize=1;strokeColor=none;fillColor=none;fontSize=20;" vertex="1" parent="1">
          <mxGeometry x="115" y="540" width="270" height="40" as="geometry" />
        </mxCell>
      </root>
    </mxGraphModel>
  </diagram>
  <diagram name="Page-2" id="ERw_IwakteHRtstsrX_v">
    <mxGraphModel dx="951" dy="517" grid="1" gridSize="10" guides="1" tooltips="1" connect="1" arrows="1" fold="1" page="1" pageScale="1" pageWidth="850" pageHeight="1100" math="0" shadow="0">
      <root>
        <mxCell id="0" />
        <mxCell id="1" parent="0" />
        <mxCell id="T-n2qmPKM4kXolX9yv24-25" value="" style="shape=cylinder3;whiteSpace=wrap;html=1;boundedLbl=1;backgroundOutline=1;size=15;" vertex="1" parent="1">
          <mxGeometry x="60" y="310" width="740" height="550" as="geometry" />
        </mxCell>
        <mxCell id="XSKVM3XxmXY-6X0rxAtT-1" value="VARIÁVEIS" style="text;html=1;align=center;verticalAlign=middle;whiteSpace=wrap;rounded=0;fontSize=24;" vertex="1" parent="1">
          <mxGeometry x="80" y="50" width="60" height="30" as="geometry" />
        </mxCell>
        <mxCell id="XSKVM3XxmXY-6X0rxAtT-2" value="BOOLEANO" style="text;html=1;align=center;verticalAlign=middle;whiteSpace=wrap;rounded=0;" vertex="1" parent="1">
          <mxGeometry x="200" y="130" width="60" height="30" as="geometry" />
        </mxCell>
        <mxCell id="XSKVM3XxmXY-6X0rxAtT-17" style="edgeStyle=orthogonalEdgeStyle;rounded=0;orthogonalLoop=1;jettySize=auto;html=1;" edge="1" parent="1" source="XSKVM3XxmXY-6X0rxAtT-3">
          <mxGeometry relative="1" as="geometry">
            <mxPoint x="250" y="50" as="targetPoint" />
            <Array as="points">
              <mxPoint x="120" y="100" />
              <mxPoint x="251" y="100" />
              <mxPoint x="251" y="50" />
            </Array>
          </mxGeometry>
        </mxCell>
        <mxCell id="XSKVM3XxmXY-6X0rxAtT-3" value="INTEIRO" style="text;html=1;align=center;verticalAlign=middle;whiteSpace=wrap;rounded=0;" vertex="1" parent="1">
          <mxGeometry x="90" y="130" width="60" height="30" as="geometry" />
        </mxCell>
        <mxCell id="XSKVM3XxmXY-6X0rxAtT-5" value="CARACTER" style="text;html=1;align=center;verticalAlign=middle;resizable=0;points=[];autosize=1;strokeColor=none;fillColor=none;" vertex="1" parent="1">
          <mxGeometry x="310" y="130" width="90" height="30" as="geometry" />
        </mxCell>
        <mxCell id="XSKVM3XxmXY-6X0rxAtT-6" value="PONTO FLUTUANTE" style="text;html=1;align=center;verticalAlign=middle;resizable=0;points=[];autosize=1;strokeColor=none;fillColor=none;" vertex="1" parent="1">
          <mxGeometry x="425" y="130" width="140" height="30" as="geometry" />
        </mxCell>
        <mxCell id="XSKVM3XxmXY-6X0rxAtT-7" value="POSITIVOS&lt;br&gt;NEGATIVOS&lt;br&gt;ZERO" style="whiteSpace=wrap;html=1;" vertex="1" parent="1">
          <mxGeometry x="80" y="170" width="80" height="60" as="geometry" />
        </mxCell>
        <mxCell id="XSKVM3XxmXY-6X0rxAtT-8" value="VERDADEIRO&lt;br&gt;FALSO" style="whiteSpace=wrap;html=1;" vertex="1" parent="1">
          <mxGeometry x="190" y="170" width="90" height="60" as="geometry" />
        </mxCell>
        <mxCell id="XSKVM3XxmXY-6X0rxAtT-9" value="ALFA NUMERICO" style="whiteSpace=wrap;html=1;" vertex="1" parent="1">
          <mxGeometry x="320" y="170" width="80" height="60" as="geometry" />
        </mxCell>
        <mxCell id="XSKVM3XxmXY-6X0rxAtT-10" value="1" style="text;html=1;align=center;verticalAlign=middle;resizable=0;points=[];autosize=1;strokeColor=none;fillColor=none;" vertex="1" parent="1">
          <mxGeometry x="95" y="258" width="30" height="30" as="geometry" />
        </mxCell>
        <mxCell id="XSKVM3XxmXY-6X0rxAtT-11" value="1" style="text;html=1;align=center;verticalAlign=middle;resizable=0;points=[];autosize=1;strokeColor=none;fillColor=none;" vertex="1" parent="1">
          <mxGeometry x="345" y="258" width="30" height="30" as="geometry" />
        </mxCell>
        <mxCell id="XSKVM3XxmXY-6X0rxAtT-12" value="POSITIVOS&lt;br&gt;NEGATIVOS&lt;br&gt;ZERO&lt;br&gt;COM CASAS DECIMAIS" style="whiteSpace=wrap;html=1;" vertex="1" parent="1">
          <mxGeometry x="455" y="170" width="80" height="70" as="geometry" />
        </mxCell>
        <mxCell id="XSKVM3XxmXY-6X0rxAtT-13" value="1.0" style="text;html=1;align=center;verticalAlign=middle;resizable=0;points=[];autosize=1;strokeColor=none;fillColor=none;" vertex="1" parent="1">
          <mxGeometry x="475" y="258" width="40" height="30" as="geometry" />
        </mxCell>
        <mxCell id="XSKVM3XxmXY-6X0rxAtT-14" value="0 / 1" style="text;html=1;align=center;verticalAlign=middle;resizable=0;points=[];autosize=1;strokeColor=none;fillColor=none;" vertex="1" parent="1">
          <mxGeometry x="210" y="258" width="50" height="30" as="geometry" />
        </mxCell>
        <mxCell id="XSKVM3XxmXY-6X0rxAtT-18" value="8 bits" style="text;html=1;align=center;verticalAlign=middle;resizable=0;points=[];autosize=1;strokeColor=none;fillColor=none;" vertex="1" parent="1">
          <mxGeometry x="255" y="38" width="50" height="30" as="geometry" />
        </mxCell>
        <mxCell id="XSKVM3XxmXY-6X0rxAtT-19" value="0" style="whiteSpace=wrap;html=1;aspect=fixed;" vertex="1" parent="1">
          <mxGeometry x="310" y="37.5" width="55" height="55" as="geometry" />
        </mxCell>
        <mxCell id="XSKVM3XxmXY-6X0rxAtT-20" value="0" style="whiteSpace=wrap;html=1;aspect=fixed;" vertex="1" parent="1">
          <mxGeometry x="375" y="38" width="55" height="55" as="geometry" />
        </mxCell>
        <mxCell id="XSKVM3XxmXY-6X0rxAtT-21" value="0" style="whiteSpace=wrap;html=1;aspect=fixed;" vertex="1" parent="1">
          <mxGeometry x="440" y="37" width="55" height="55" as="geometry" />
        </mxCell>
        <mxCell id="XSKVM3XxmXY-6X0rxAtT-22" value="0" style="whiteSpace=wrap;html=1;aspect=fixed;" vertex="1" parent="1">
          <mxGeometry x="505" y="37.5" width="55" height="55" as="geometry" />
        </mxCell>
        <mxCell id="XSKVM3XxmXY-6X0rxAtT-23" value="0" style="whiteSpace=wrap;html=1;aspect=fixed;" vertex="1" parent="1">
          <mxGeometry x="570" y="36.5" width="55" height="55" as="geometry" />
        </mxCell>
        <mxCell id="XSKVM3XxmXY-6X0rxAtT-24" value="0" style="whiteSpace=wrap;html=1;aspect=fixed;" vertex="1" parent="1">
          <mxGeometry x="635" y="37" width="55" height="55" as="geometry" />
        </mxCell>
        <mxCell id="XSKVM3XxmXY-6X0rxAtT-25" value="0" style="whiteSpace=wrap;html=1;aspect=fixed;" vertex="1" parent="1">
          <mxGeometry x="700" y="36" width="55" height="55" as="geometry" />
        </mxCell>
        <mxCell id="XSKVM3XxmXY-6X0rxAtT-26" value="1" style="whiteSpace=wrap;html=1;aspect=fixed;" vertex="1" parent="1">
          <mxGeometry x="765" y="36.5" width="55" height="55" as="geometry" />
        </mxCell>
        <mxCell id="XSKVM3XxmXY-6X0rxAtT-27" value="0" style="whiteSpace=wrap;html=1;aspect=fixed;" vertex="1" parent="1">
          <mxGeometry x="765" y="115" width="55" height="55" as="geometry" />
        </mxCell>
        <mxCell id="T-n2qmPKM4kXolX9yv24-1" value="" style="rounded=1;whiteSpace=wrap;html=1;" vertex="1" parent="1">
          <mxGeometry x="80" y="350" width="670" height="140" as="geometry" />
        </mxCell>
        <mxCell id="T-n2qmPKM4kXolX9yv24-2" value="K" style="whiteSpace=wrap;html=1;aspect=fixed;" vertex="1" parent="1">
          <mxGeometry x="120" y="380" width="80" height="80" as="geometry" />
        </mxCell>
        <mxCell id="T-n2qmPKM4kXolX9yv24-3" value="E" style="whiteSpace=wrap;html=1;aspect=fixed;" vertex="1" parent="1">
          <mxGeometry x="210" y="380" width="80" height="80" as="geometry" />
        </mxCell>
        <mxCell id="T-n2qmPKM4kXolX9yv24-4" value="Y" style="whiteSpace=wrap;html=1;aspect=fixed;" vertex="1" parent="1">
          <mxGeometry x="300" y="380" width="80" height="80" as="geometry" />
        </mxCell>
        <mxCell id="T-n2qmPKM4kXolX9yv24-5" value="L" style="whiteSpace=wrap;html=1;aspect=fixed;" vertex="1" parent="1">
          <mxGeometry x="385" y="380" width="80" height="80" as="geometry" />
        </mxCell>
        <mxCell id="T-n2qmPKM4kXolX9yv24-6" value="L" style="whiteSpace=wrap;html=1;aspect=fixed;" vertex="1" parent="1">
          <mxGeometry x="470" y="380" width="80" height="80" as="geometry" />
        </mxCell>
        <mxCell id="T-n2qmPKM4kXolX9yv24-7" value="A" style="whiteSpace=wrap;html=1;aspect=fixed;" vertex="1" parent="1">
          <mxGeometry x="560" y="380" width="80" height="80" as="geometry" />
        </mxCell>
        <mxCell id="T-n2qmPKM4kXolX9yv24-8" value="" style="whiteSpace=wrap;html=1;aspect=fixed;" vertex="1" parent="1">
          <mxGeometry x="650" y="380" width="80" height="80" as="geometry" />
        </mxCell>
        <mxCell id="T-n2qmPKM4kXolX9yv24-9" value="" style="rounded=1;whiteSpace=wrap;html=1;" vertex="1" parent="1">
          <mxGeometry x="85" y="510" width="670" height="140" as="geometry" />
        </mxCell>
        <mxCell id="T-n2qmPKM4kXolX9yv24-10" value="K" style="whiteSpace=wrap;html=1;aspect=fixed;" vertex="1" parent="1">
          <mxGeometry x="125" y="540" width="80" height="80" as="geometry" />
        </mxCell>
        <mxCell id="T-n2qmPKM4kXolX9yv24-11" value="E" style="whiteSpace=wrap;html=1;aspect=fixed;" vertex="1" parent="1">
          <mxGeometry x="215" y="540" width="80" height="80" as="geometry" />
        </mxCell>
        <mxCell id="T-n2qmPKM4kXolX9yv24-12" value="Y" style="whiteSpace=wrap;html=1;aspect=fixed;" vertex="1" parent="1">
          <mxGeometry x="305" y="540" width="80" height="80" as="geometry" />
        </mxCell>
        <mxCell id="T-n2qmPKM4kXolX9yv24-13" value="L" style="whiteSpace=wrap;html=1;aspect=fixed;" vertex="1" parent="1">
          <mxGeometry x="390" y="540" width="80" height="80" as="geometry" />
        </mxCell>
        <mxCell id="T-n2qmPKM4kXolX9yv24-14" value="L" style="whiteSpace=wrap;html=1;aspect=fixed;" vertex="1" parent="1">
          <mxGeometry x="475" y="540" width="80" height="80" as="geometry" />
        </mxCell>
        <mxCell id="T-n2qmPKM4kXolX9yv24-15" value="A" style="whiteSpace=wrap;html=1;aspect=fixed;" vertex="1" parent="1">
          <mxGeometry x="565" y="540" width="80" height="80" as="geometry" />
        </mxCell>
        <mxCell id="T-n2qmPKM4kXolX9yv24-16" value="" style="whiteSpace=wrap;html=1;aspect=fixed;" vertex="1" parent="1">
          <mxGeometry x="655" y="540" width="80" height="80" as="geometry" />
        </mxCell>
        <mxCell id="T-n2qmPKM4kXolX9yv24-17" value="" style="rounded=1;whiteSpace=wrap;html=1;" vertex="1" parent="1">
          <mxGeometry x="85" y="680" width="670" height="140" as="geometry" />
        </mxCell>
        <mxCell id="T-n2qmPKM4kXolX9yv24-18" value="K" style="whiteSpace=wrap;html=1;aspect=fixed;" vertex="1" parent="1">
          <mxGeometry x="125" y="710" width="80" height="80" as="geometry" />
        </mxCell>
        <mxCell id="T-n2qmPKM4kXolX9yv24-19" value="E" style="whiteSpace=wrap;html=1;aspect=fixed;" vertex="1" parent="1">
          <mxGeometry x="215" y="710" width="80" height="80" as="geometry" />
        </mxCell>
        <mxCell id="T-n2qmPKM4kXolX9yv24-20" value="Y" style="whiteSpace=wrap;html=1;aspect=fixed;" vertex="1" parent="1">
          <mxGeometry x="305" y="710" width="80" height="80" as="geometry" />
        </mxCell>
        <mxCell id="T-n2qmPKM4kXolX9yv24-21" value="L" style="whiteSpace=wrap;html=1;aspect=fixed;" vertex="1" parent="1">
          <mxGeometry x="390" y="710" width="80" height="80" as="geometry" />
        </mxCell>
        <mxCell id="T-n2qmPKM4kXolX9yv24-22" value="L" style="whiteSpace=wrap;html=1;aspect=fixed;" vertex="1" parent="1">
          <mxGeometry x="475" y="710" width="80" height="80" as="geometry" />
        </mxCell>
        <mxCell id="T-n2qmPKM4kXolX9yv24-23" value="A" style="whiteSpace=wrap;html=1;aspect=fixed;" vertex="1" parent="1">
          <mxGeometry x="565" y="710" width="80" height="80" as="geometry" />
        </mxCell>
        <mxCell id="T-n2qmPKM4kXolX9yv24-24" value="" style="whiteSpace=wrap;html=1;aspect=fixed;" vertex="1" parent="1">
          <mxGeometry x="655" y="710" width="80" height="80" as="geometry" />
        </mxCell>
      </root>
    </mxGraphModel>
  </diagram>
  <diagram name="Page-3" id="ESNmxCiUibb0xWAa48Vd">
    <mxGraphModel dx="1379" dy="749" grid="1" gridSize="10" guides="1" tooltips="1" connect="1" arrows="1" fold="1" page="1" pageScale="1" pageWidth="850" pageHeight="1100" math="0" shadow="0">
      <root>
        <mxCell id="0" />
        <mxCell id="1" parent="0" />
        <mxCell id="oFMARH4S2VykTmrI7Du0-1" value="" style="ellipse;whiteSpace=wrap;html=1;fillColor=none;" vertex="1" parent="1">
          <mxGeometry x="90" y="110" width="210" height="220" as="geometry" />
        </mxCell>
        <mxCell id="oFMARH4S2VykTmrI7Du0-2" value="" style="ellipse;whiteSpace=wrap;html=1;fillColor=none;" vertex="1" parent="1">
          <mxGeometry x="260" y="100" width="210" height="220" as="geometry" />
        </mxCell>
        <mxCell id="oFMARH4S2VykTmrI7Du0-3" value="" style="ellipse;whiteSpace=wrap;html=1;fillColor=none;" vertex="1" parent="1">
          <mxGeometry x="180" y="240" width="210" height="220" as="geometry" />
        </mxCell>
      </root>
    </mxGraphModel>
  </diagram>
</mxfile>
